<svg height="512pt" viewBox="0 -112 512 512" width="512pt" xmlns="http://www.w3.org/2000/svg"><path d="m432.734375 287.066406c-43.710937 0-79.269531-35.558594-79.269531-79.265625 0-.355469.003906-.710937.007812-1.066406h-194.945312c.003906.355469.003906.710937.003906 1.066406 0 43.707031-35.558594 79.265625-79.265625 79.265625s-79.265625-35.558594-79.265625-79.265625c0-26.433593 13.007812-49.886719 32.957031-64.296875-19.953125-14.433594-32.957031-37.886718-32.957031-64.238281 0-43.707031 35.558594-79.265625 79.265625-79.265625 43.710937 0 79.269531 35.558594 79.269531 79.265625 0 .355469-.003906.710937-.007812 1.066406h194.949218c-.007812-.355469-.007812-.710937-.007812-1.066406 0-43.707031 35.558594-79.265625 79.265625-79.265625s79.265625 35.558594 79.265625 79.265625c0 26.429687-13.003906 49.878906-32.945312 64.289063 19.933593 14.433593 32.945312 37.890624 32.945312 64.246093 0 43.707031-35.558594 79.265625-79.265625 79.265625zm0 0" fill="#f3eee9"/><path d="m0 207.800781c0 43.707031 35.558594 79.265625 79.265625 79.265625 43.710937 0 79.269531-35.558594 79.269531-79.265625 0-.355469-.003906-.710937-.007812-1.066406h194.949218c-.007812.355469-.007812.710937-.007812 1.066406 0 43.707031 35.558594 79.265625 79.265625 79.265625s79.265625-35.558594 79.265625-79.265625c0-26.355469-13.011719-49.8125-32.945312-64.242187h-446.167969c-19.910157 14.410156-32.886719 37.839844-32.886719 64.242187zm0 0" fill="#e9dfda"/></svg>